# xmcd
#
# Track frame offsets: 
#        150
#        11068
#        21540
#        31389
#        41531
#        52662
#        62708
#        72602
#        81932
#        94575
#        106302
#        116090
#        127655
#        137651
#        149503
#        161142
#        169664
#        181809
#
# Disc length: 2556 seconds
#
# Revision: 1
# Processed by: cddbd v1.5.2PL0 Copyright (c) Steve Scherf et al.
# Submitted via: ExactAudioCopy v0.95b4
#
DISCID=f609fa12
DTITLE=Fats Domino - Blues Kingpins
DYEAR=2003
DGENRE=Boogie-Blues
TTITLE0=Hide Away Blues [1949]
TTITLE1=Boogie Woogie Baby [1950]
TTITLE2=Every Night About This Time [1950]
TTITLE3=Tired of Crying [alt. take, 1951]
TTITLE4=Rockin' Chair [1951]
TTITLE5=You Know I Miss You [1951]
TTITLE6=Goin' Home [1951-1952]
TTITLE7=How Long [1951-1952]
TTITLE8=Trust in Me [1952]
TTITLE9=Cheatin' [1952]
TTITLE10=Poor Poor Me [1952]
TTITLE11=Going to the River [1952-1953]
TTITLE12=Goodbye [1953]
TTITLE13=Please Don't Leave Me [1953]
TTITLE14=You Said You Love Me [1953]
TTITLE15=Domino Stomp [1953]
TTITLE16=Something's Wrong [1953]
TTITLE17=So Long [1955]
EXTD=Antoine "Fats" Domino (b.1928): vocals, piano\nApproximate roster
EXTD=#1:\n Dave Bartholomew (b.1920): trumpet\n Joe Harris: alto sax\n
EXTD=Herb Hardesty, Clarence Hall: tenor sax\n Alvin "Red" Tyler: bar
EXTD=itone sax\n Ernest McLean: guitar\n Frank Fields: bass\n Earl Pal
EXTD=mer: drums\nApproximate roster #2 (tracks 4-8, with some crossove
EXTD=r into roster #1 on other tracks):\n Wendell Duconge, Buddy Hagan
EXTD=s: sax\n Walter "Papoose" Nelson: guitar\n Billy Diamond: bass\n 
EXTD=Cornelius "Tenoo" Coleman: drums\nRecorded 1949-12-10/1955-11-30.
EXTD=\nTracks 4-8 produced by Al Young - other tracks prob. produced by
EXTD=Dave Bartholomew.\nCompilation mastered by Dave Schultz at DigiP
EXTD=rep, under the supervision of Frank Collura.\nCD: Virgin/The Righ
EXTD=t Stuff/Blues Kingpins 82742 (2003-08-05), UPC 724358274226.
EXTT0=(Antoine Domino/Dave Bartholomew)
EXTT1=(Dave Bartholomew)
EXTT2=(Antoine Domino)
EXTT3=(Antoine Domino)
EXTT4=(Antoine Domino/Al Young)
EXTT5=(Antoine Domino/Al Young)
EXTT6=(Antoine Domino/Al Young)
EXTT7=(Antoine Domino/Al Young)
EXTT8=(Antoine Domino)
EXTT9=(Antoine Domino)
EXTT10=(Antoine Domino)
EXTT11=(Antoine Domino/Dave Bartholomew)
EXTT12=(Antoine Domino/Dave Bartholomew)
EXTT13=(Antoine Domino)
EXTT14=(Antoine Domino/Dave Bartholomew)
EXTT15=(Antoine Domino)
EXTT16=(Antoine Domino/Dave Bartholomew)
EXTT17=(Antoine Domino/Dave Bartholomew)
PLAYORDER=
